<?xml version="1.0" encoding="UTF-8" standalone="no"?>
<svg
   height="28.125"
   width="25"
   version="1.1"
   id="svg422"
   xmlns="http://www.w3.org/2000/svg"
   xmlns:svg="http://www.w3.org/2000/svg">
  <defs
     id="defs426" />
  <path
     d="m 5.0500006,36 q -1.2,0 -2.1,-0.9 Q 2.05,34.2 2.05,33 V 4.5 H 0 v -3 H 9.4 V 0 H 22.6 V 1.5 H 32 v 3 H 29.950001 V 33 q 0,1.2 -0.900002,2.1 -0.9,0.9 -2.099998,0.9 z M 26.950001,4.5 H 5.0500006 V 33 q 0,0 0,0 0,0 0,0 H 26.950001 q 0,0 0,0 0,0 0,0 z M 10.349999,28.7 h 3 V 8.7500006 h -3 z m 8.3,0 h 3 V 8.7500006 h -3 z M 5.0500006,4.5 V 33 q 0,0 0,0 0,0 0,0 0,0 0,0 0,0 0,0 z"
     id="path420"
     style="stroke-width:1" />
</svg>
